<?xml version="1.0" encoding="UTF-8"?>
<svg width="752pt" height="752pt" version="1.1" viewBox="0 0 752 752" xmlns="http://www.w3.org/2000/svg">
 <g>
  <path d="m268.27 480.18h-93.633c-0.9375 0-1.6992-0.76172-1.6992-1.7031l-0.003906-222.75c0-0.94141 0.76172-1.7031 1.6992-1.7031h125.64c0.94141 0 1.7031 0.76172 1.7031 1.7031l0.003906 127.71h8.9453v-153.27c0-10.352-8.3906-18.738-18.746-18.738h-4.2812c-0.26953-0.58203-0.85156-0.99609-1.5391-0.99609h-16.324c-0.6875 0-1.2695 0.41016-1.5391 0.99609l-86.191-0.003907c-10.352 0-18.746 8.3867-18.746 18.738v24.211c-0.58203 0.27344-0.98828 0.85156-0.98828 1.5391v6.1953c0 0.6875 0.40625 1.2695 0.98828 1.5352v7.2031c-0.58203 0.26953-0.98828 0.85156-0.98828 1.5391v6.1953c0 0.68359 0.40625 1.2656 0.98828 1.5352v223.34c0 10.352 8.3906 18.738 18.746 18.738h85.965zm-31.586-256.68c1.5742 0 2.8359 1.2695 2.8359 2.8359 0 1.5742-1.2695 2.8398-2.8359 2.8398s-2.8398-1.2734-2.8398-2.8398 1.2656-2.8359 2.8398-2.8359zm-9.9414 13.348h21.297c0.94141 0 1.6992 0.76172 1.6992 1.6992s-0.76172 1.6992-1.6992 1.6992h-21.297c-0.9375 0-1.7031-0.76172-1.7031-1.6992 0-0.94141 0.76563-1.6992 1.7031-1.6992zm11.641 278.25c-8.1406 0-14.762-6.6172-14.762-14.758 0-8.1406 6.6211-14.762 14.762-14.762 8.1445 0 14.766 6.6211 14.766 14.762 0 8.1406-6.6211 14.758-14.766 14.758z"/>
  <path d="m238.45 488.84c-6.2617 0-11.355 5.0977-11.355 11.352 0 6.2656 5.0977 11.352 11.355 11.352 6.2656 0 11.355-5.0859 11.355-11.352 0.003906-6.2539-5.0938-11.352-11.355-11.352z"/>
  <path d="m298.65 454.76c-6.2617 0-11.355 5.0977-11.355 11.352 0 6.2656 5.0977 11.359 11.355 11.359 6.2617 0 11.355-5.0977 11.355-11.359-0.003906-6.2539-5.0938-11.352-11.355-11.352z"/>
  <path d="m587.56 496.25v-86.207c0-10.355-8.3828-18.738-18.746-18.738h-24.211c-0.26172-0.58594-0.84766-0.99609-1.5352-0.99609h-6.1914c-0.68359 0-1.2695 0.40625-1.5234 0.99609h-7.207c-0.26953-0.58594-0.85547-0.99609-1.543-0.99609h-6.1836c-0.69141 0-1.2695 0.40625-1.5352 0.99609h-223.36c-10.352 0-18.738 8.3867-18.738 18.738v109.89c0 10.355 8.3867 18.738 18.738 18.738h273.29c10.363 0 18.746-8.3867 18.746-18.738v-4.2812c0.58203-0.26953 0.99609-0.84766 0.99609-1.5391v-16.324c-0.003906-0.69531-0.41797-1.2734-1-1.5352zm-288.91-15.371c-8.1406 0-14.766-6.6172-14.766-14.766 0-8.1367 6.625-14.766 14.766-14.766s14.766 6.6289 14.766 14.766c-0.003907 8.1523-6.625 14.766-14.766 14.766zm246.32 47.141c0 0.94141-0.77344 1.6992-1.7109 1.6992l-222.75 0.003906c-0.94141 0-1.6992-0.75781-1.6992-1.6992v-125.65c0-0.94141 0.76172-1.6992 1.6992-1.6992h222.75c0.9375 0 1.7109 0.75781 1.7109 1.6992l-0.003906 125.65zm17.172-52.242c0 0.93359-0.76172 1.6992-1.6992 1.6992s-1.6992-0.76562-1.6992-1.6992v-21.297c0-0.94141 0.76172-1.7031 1.6992-1.7031s1.6992 0.76172 1.6992 1.7031zm10.496-8.5273c-1.5625 0-2.8398-1.2656-2.8398-2.832 0-1.5664 1.2773-2.8398 2.8398-2.8398 1.5742 0 2.8477 1.2734 2.8477 2.8398 0 1.5703-1.2734 2.832-2.8477 2.832z"/>
  <path d="m349.39 267.51-8.6562 8.0117c45.387 4.5508 66.988 31.004 77.141 52.836 11.301 24.32 11.098 47.59 11.098 48.57l-0.039062 2.5117-6.8086 0.003906 0.039063-2.6016c0.019531-0.21875 0.14844-22.898-10.566-45.812-13.449-28.738-37.215-45.062-70.684-48.629l7.5977 8.1914-9.8047-0.375-11.102-11.98 11.98-11.105z"/>
 </g>
</svg>
